<svg width="87" height="47" viewBox="0 0 87 47" fill="none" xmlns="http://www.w3.org/2000/svg">
<path d="M1 21.159C29.3617 21.159 57.7414 20.9004 86.088 20.9004" stroke="#481210" stroke-linecap="round" stroke-linejoin="round"/>
<path d="M42.7328 22.7921C45.2849 22.7921 45.4258 20.2607 44.2849 19.5C43.1439 18.7394 41.1601 19.0815 41.1601 19.5C39.6904 20.1068 40.1702 24 42.1014 24C43.5523 24 44.2153 22.7716 43.2849 21.6113C38.7849 16 34.1746 18.4583 31.2849 13C29.6924 9.99204 29.2849 6.00003 31.7848 4.00004C33.7849 2.39998 37.6928 2.49277 39.2849 5.50001C43.7849 12 39.2849 17 42.7328 22.7921Z" stroke="#481210" stroke-linecap="round" stroke-linejoin="round"/>
<path d="M42.2849 22C38.7849 21.5 36.7849 25.5 36.7849 30.5C36.7849 33.9798 39.6742 40.9279 35.6069 42.4532" stroke="#481210" stroke-linecap="round" stroke-linejoin="round"/>
<path d="M43.7852 22C40.785 23 41.7849 10.5 43.7851 7.00003C46.6426 1.99998 50.2849 0.5 53.7849 1.99998C57.7849 4 58.0736 8.50001 55.7851 12C52.5823 16.8984 45.7852 15.5 42.7852 23" stroke="#481210" stroke-linecap="round" stroke-linejoin="round"/>
<path d="M43.99 22.6497C48.7849 25 46.7849 31.5 46.7849 37.5C46.7849 41.5311 47.7849 45 51.296 45.9909" stroke="#481210" stroke-linecap="round" stroke-linejoin="round"/>
</svg>
